# xmcd
#
# Track frame offsets: 
#        150
#        26778
#        53213
#        75850
#
# Disc length: 1364 seconds
#
# Revision: 1
# Processed by: cddbd v1.5.2PL0 Copyright (c) Steve Scherf et al.
# Submitted via: ExactAudioCopy v1.0b3
#
DISCID=24055204
DTITLE=中島美嘉 - ひとり
DYEAR=2005
DGENRE=JPop
TTITLE0=ひとり [single version]
TTITLE1=ひとり [album version]
TTITLE2=ひとり [endroll version]
TTITLE3=ひとり [instrumental]
EXTD=
EXTT0=
EXTT1=
EXTT2=
EXTT3=
PLAYORDER=
